HIERARCHY
ROOT Pelvis
{
	OFFSET 0.000000 0.000000 0.000000
	CHANNELS 6 Xposition Yposition Zposition Xrotation Yrotation Zrotation
	JOINT LeftUpLeg_virtual
	{
		OFFSET 0.000000 0.000000 0.000000
		CHANNELS 3 Xrotation Yrotation Zrotation
		JOINT LeftUpLeg
		{
			OFFSET 8.479700 -4.795502 -0.379100
			CHANNELS 3 Xrotation Yrotation Zrotation
			JOINT LeftLeg
			{
				OFFSET 0.024144 -32.555107 0.112900
				CHANNELS 3 Xrotation Yrotation Zrotation
				JOINT LeftFoot
				{
					OFFSET -0.024144 -32.638630 -3.012600
					CHANNELS 3 Xrotation Yrotation Zrotation
					JOINT LeftToeBase
					{
						OFFSET 0.970200 -13.225400 11.864200
						CHANNELS 3 Xrotation Yrotation Zrotation
						End Site
						{
							OFFSET 0 0 0
						}
					}
				}
			}
		}
	}
	JOINT RightUpLeg_virtual
	{
		OFFSET 0.000000 0.000000 0.000000
		CHANNELS 3 Xrotation Yrotation Zrotation
		JOINT RightUpLeg
		{
			OFFSET -8.479700 -4.795502 -0.379100
			CHANNELS 3 Xrotation Yrotation Zrotation
			JOINT RightLeg
			{
				OFFSET -0.023144 -32.555092 0.112900
				CHANNELS 3 Xrotation Yrotation Zrotation
				JOINT RightFoot
				{
					OFFSET 0.023144 -32.638641 -3.012700
					CHANNELS 3 Xrotation Yrotation Zrotation
					JOINT RightToeBase
					{
						OFFSET -0.970200 -13.225400 11.864200
						CHANNELS 3 Xrotation Yrotation Zrotation
						End Site
						{
							OFFSET 0 0 0
						}
					}
				}
			}
		}
	}
	JOINT Hips_virtual
	{
		OFFSET 0.000000 0.000000 0.000000
		CHANNELS 3 Xrotation Yrotation Zrotation
		JOINT Hips
		{
			OFFSET -0.000000 -0.000000 -0.000000
			CHANNELS 3 Xrotation Yrotation Zrotation
			JOINT Spine
			{
				OFFSET 0.000000 7.722000 1.166200
				CHANNELS 3 Xrotation Yrotation Zrotation
				JOINT Spine1
				{
					OFFSET 0.000000 12.024101 0.248800
					CHANNELS 3 Xrotation Yrotation Zrotation
					JOINT Spine2
					{
						OFFSET 0.000000 11.502998 -0.491200
						CHANNELS 3 Xrotation Yrotation Zrotation
						JOINT Neck_virtual
						{
							OFFSET 0.000000 0.000000 0.000000
							CHANNELS 3 Xrotation Yrotation Zrotation
							JOINT Neck
							{
								OFFSET 0.000000 18.430702 -3.123100
								CHANNELS 3 Xrotation Yrotation Zrotation
								JOINT Head
								{
									OFFSET 0.000000 9.051102 1.034000
									CHANNELS 3 Xrotation Yrotation Zrotation
									End Site
									{
										OFFSET 0 0 0
									}
								}
							}
						}
						JOINT LeftShoulder_virtual
						{
							OFFSET 0.000000 0.000000 0.000000
							CHANNELS 3 Xrotation Yrotation Zrotation
							JOINT LeftShoulder
							{
								OFFSET 6.197800 13.665199 -4.064700
								CHANNELS 3 Xrotation Yrotation Zrotation
								JOINT LeftArm
								{
									OFFSET 7.778100 -0.187103 -1.709300
									CHANNELS 3 Xrotation Yrotation Zrotation
									JOINT LeftForeArm
									{
										OFFSET 22.049376 0.000000 0.000000
										CHANNELS 3 Xrotation Yrotation Zrotation
										JOINT LeftHand
										{
											OFFSET 23.009392 0.000000 0.000000
											CHANNELS 3 Xrotation Yrotation Zrotation
											End Site
											{
												OFFSET 0 0 0
											}
										}
									}
								}
							}
						}
						JOINT RightShoulder_virtual
						{
							OFFSET 0.000000 0.000000 0.000000
							CHANNELS 3 Xrotation Yrotation Zrotation
							JOINT RightShoulder
							{
								OFFSET -6.197800 13.665199 -4.064700
								CHANNELS 3 Xrotation Yrotation Zrotation
								JOINT RightArm
								{
									OFFSET -7.778100 -0.187103 -1.709300
									CHANNELS 3 Xrotation Yrotation Zrotation
									JOINT RightForeArm
									{
										OFFSET -22.049376 0.000000 0.000000
										CHANNELS 3 Xrotation Yrotation Zrotation
										JOINT RightHand
										{
											OFFSET -23.009392 0.000000 0.000000
											CHANNELS 3 Xrotation Yrotation Zrotation
											End Site
											{
												OFFSET 0 0 0
											}
										}
									}
								}
							}
						}
					}
				}
			}
		}
	}
}
MOTION
Frames: 4
Frame Time: 0.03333333
-0.258553 77.264542 0.130758 0.000000 0.000000 0.000000 -6.087214 -43.035232 -4.012854 -27.449552 6.122084 14.191994 33.927623 -16.101102 -0.563916 -4.054923 2.172996 -7.657762 0.000000 0.000000 0.000000 -6.087214 -43.035232 -4.012854 -4.385036 -13.679753 -15.663838 32.735792 -9.018595 -0.425545 -20.517615 -4.055897 17.153001 0.000000 0.000000 0.000000 -6.087214 -43.035232 -4.012854 0.000001 -0.000001 0.000000 5.834287 4.644729 -1.249551 11.836806 9.036859 -3.086775 0.000000 0.000000 0.000000 11.836805 9.036864 -3.086778 -4.023277 -0.974174 0.382902 0.000000 0.000000 0.000000 11.836805 9.036864 -3.086778 1.392488 -0.696037 -7.877868 -14.270856 2.385507 -63.280774 9.855323 -47.499342 5.919339 0.000000 0.000000 0.000000 11.836805 9.036864 -3.086778 1.409761 9.464718 9.801444 1.234155 -24.280856 60.535523 -6.660162 41.888983 8.039863 0.000000 0.000000 0.000000 
-0.221872 77.176445 -0.194511 0.000000 0.000000 0.000000 -4.771021 -41.746967 -3.675136 -29.633589 6.737051 14.562752 34.406231 -14.440464 0.562718 -3.240646 0.495169 -7.587223 0.000000 0.000000 0.000000 -4.771021 -41.746967 -3.675136 -5.259445 -13.781906 -15.035649 33.392832 -8.743453 -0.219723 -20.838721 -4.016619 17.138324 0.000000 0.000000 0.000000 -4.771021 -41.746967 -3.675136 0.000000 0.000000 0.000000 5.878495 4.565226 -1.177231 11.918893 8.877105 -2.961022 0.000000 0.000000 0.000000 11.918896 8.877112 -2.961025 -4.393510 -1.244333 0.135179 0.000000 0.000000 0.000000 11.918896 8.877112 -2.961025 1.570212 -1.339776 -7.270731 -11.927843 2.709212 -62.623853 11.392410 -50.094909 6.156129 0.000000 0.000000 0.000000 11.918896 8.877112 -2.961025 1.547677 9.347146 9.092342 0.556994 -22.906436 60.241367 -3.542695 42.903891 5.840081 0.000000 0.000000 0.000000 
-0.185934 77.051048 -0.564344 0.000000 0.000000 0.000000 -3.377648 -40.461282 -3.481332 -32.015491 6.959227 15.284355 34.779740 -12.311339 1.329412 -2.310658 -1.340582 -7.670237 0.000000 0.000000 0.000000 -3.377648 -40.461282 -3.481332 -6.567789 -14.729703 -13.987561 34.170402 -7.907823 -1.147323 -21.061284 -4.033616 17.438204 0.000000 0.000000 0.000000 -3.377648 -40.461282 -3.481332 0.000000 -0.000001 0.000000 5.925053 4.474716 -1.074969 12.004168 8.695485 -2.784137 0.000000 0.000000 0.000000 12.004171 8.695489 -2.784138 -4.402254 -1.432518 -0.308002 0.000000 0.000000 0.000000 12.004171 8.695489 -2.784138 1.744166 -1.717845 -6.596195 -9.656326 2.899162 -62.029292 12.853447 -52.487046 6.201621 0.000000 0.000000 0.000000 12.004171 8.695489 -2.784138 1.665581 8.672815 8.386895 -0.517095 -21.343880 59.835073 -0.867269 43.424055 3.841157 0.000000 0.000000 0.000000 
-0.166757 76.882065 -0.979265 0.000000 0.000000 0.000000 -1.934692 -39.178891 -3.360827 -34.632379 7.251188 16.259021 35.110444 -9.957195 1.975053 -1.401911 -3.443200 -7.715331 0.000000 0.000000 0.000000 -1.934692 -39.178891 -3.360827 -8.093921 -15.842745 -12.759597 35.198833 -6.991349 -2.438924 -21.336623 -4.074375 17.863149 0.000000 0.000000 0.000000 -1.934692 -39.178891 -3.360827 0.000000 -0.000003 0.000000 5.975393 4.377247 -0.971426 12.097062 8.496688 -2.607074 0.000000 0.000000 0.000000 12.097065 8.496694 -2.607071 -4.402068 -1.602828 -0.704804 0.000000 0.000000 0.000000 12.097065 8.496694 -2.607071 1.920545 -2.204488 -5.946351 -7.362911 3.228190 -61.378252 14.333900 -54.674066 6.292072 0.000000 0.000000 0.000000 12.097065 8.496694 -2.607071 1.789072 8.381574 7.651965 -1.251851 -20.026753 59.610619 1.393150 43.948548 1.818025 0.000000 0.000000 0.000000 
